<?xml version="1.0" encoding="UTF-8"?>
<svg id="Layer_1" data-name="Layer 1" xmlns="http://www.w3.org/2000/svg" xmlns:xlink="http://www.w3.org/1999/xlink" viewBox="0 0 632.27 494.91">
  <defs>
    <style>
      .cls-1 {
        fill: url(#linear-gradient);
      }
    </style>
    <linearGradient id="linear-gradient" x1="316.14" y1="485.37" x2="316.14" y2="63.28" gradientTransform="translate(0 494.91) scale(1 -1)" gradientUnits="userSpaceOnUse">
      <stop offset="0" stop-color="#e4c5a5"/>
      <stop offset="1" stop-color="#966e49"/>
    </linearGradient>
  </defs>
  <path class="cls-1" d="M18.18,451.46c-1.65,0-3.05-.26-4.22-.79-1.17-.53-2.05-1.33-2.66-2.41-.61-1.08-.91-2.43-.91-4.06s.3-3,.91-4.12,1.49-1.96,2.66-2.54c1.17-.58,2.57-.87,4.22-.87h7.03v12.47h-5.06v-8.88l.82.71h-2.79c-.55,0-1.03.07-1.44.21-.41.14-.73.44-.96.9s-.34,1.17-.34,2.13c0,.9.1,1.56.29,1.99.2.42.5.69.9.81s.92.18,1.54.18h10.09v4.29h-10.08v-.02ZM12.77,433.9v-3.85h4.82v3.85h-4.82ZM19.04,433.9v-3.85h4.79v3.85h-4.79ZM28.27,451.46v-4.29c.1,0,.18.05.25.15.07.1.13.24.18.43s.09.41.12.68.04.56.04.9-.01.63-.04.9-.07.49-.12.68-.11.33-.18.43c-.07.07-.15.12-.25.12ZM28.27,451.46c-.1,0-.19-.05-.26-.15-.08-.1-.14-.24-.18-.43s-.07-.41-.1-.68-.04-.56-.04-.9c0-.45.02-.83.06-1.15.04-.31.1-.56.19-.73.09-.18.2-.27.34-.27v4.31h0ZM28.27,451.46v-4.29h8.85l-3.15,2.62v-13.12h5.06v14.79h-10.76ZM29.24,458.37v-3.85h4.82v3.85h-4.82ZM35.5,458.37v-3.85h4.79v3.85h-4.79ZM44.27,459.31c-.22,0-.48-.01-.79-.03s-.65-.05-1-.09l.09-4.21c.35,0,.68,0,.98.01.3.01.52.01.66.01.67,0,1.19-.27,1.57-.81s.57-1.32.57-2.34v-15.2h5.06v15.2c0,1.43-.3,2.71-.9,3.84s-1.43,2.01-2.5,2.65c-1.06.65-2.31.97-3.74.97ZM55.82,451.46v-20.58h5.03v20.58h-5.03ZM64.56,451.46v-4.29h10.47l-3.21,2.74v-3.94c0-1.33-.13-2.36-.38-3.07-.25-.72-.68-1.21-1.26-1.5-.59-.28-1.41-.43-2.47-.43h-2.38v-4.29h2.38c1.98,0,3.66.33,5.03.99s2.41,1.67,3.1,3.04c.7,1.37,1.04,3.13,1.04,5.26v5.5h-12.32ZM79.41,451.46v-4.29h15.32l-2.29,2.32v-18.61h5.06v20.58h-18.09ZM81.59,461.19v-2.5h8.03v2.5h-8.03ZM83.55,460.81c-.41-.49-.73-.96-.94-1.4-.22-.44-.32-.92-.32-1.43,0-.75.2-1.41.59-2s.91-1.05,1.56-1.4c.65-.34,1.36-.51,2.15-.51.41,0,.84.06,1.28.18.44.12.81.27,1.1.47l-1.15,2.12c-.2-.1-.39-.16-.57-.19s-.37-.04-.54-.04c-.47,0-.83.12-1.09.37s-.38.56-.38.96c0,.24.04.46.13.66.09.21.23.42.43.63l-2.25,1.58ZM83.08,447.16v-12.2h5.06v12.2h-5.06ZM102.02,451.46v-20.58h5.03v20.58h-5.03ZM127.46,451.46c-2.2,0-4.07-.31-5.62-.93s-2.72-1.52-3.51-2.71-1.19-2.64-1.19-4.37c0-.47.03-.96.09-1.46.06-.5.13-.98.21-1.44s.16-.87.24-1.24c.08-.36.14-.64.18-.84l4.91.97c-.06.29-.13.67-.22,1.12s-.17.92-.24,1.41-.1.95-.1,1.38c0,.78.13,1.42.4,1.91.26.49.64.87,1.13,1.15.49.27,1.08.47,1.76.57s1.45.16,2.29.16h7.35v-10.5h5.06v14.79h-12.74v.03ZM123.17,435.43v-3.85h4.82v3.85h-4.82ZM129.43,435.43v-3.85h4.79v3.85h-4.79ZM144.13,451.46v-20.58h5.03v20.58h-5.03ZM153.37,459.31c-.22,0-.48-.01-.79-.03s-.65-.05-1-.09l.09-4.21c.35,0,.68,0,.99.01.3.01.52.01.66.01.67,0,1.19-.27,1.57-.81s.57-1.32.57-2.34v-15.2h5.06v15.2c0,1.43-.3,2.71-.9,3.84s-1.43,2.01-2.5,2.65c-1.07.65-2.32.97-3.75.97ZM164.93,451.46v-20.58h5.03v20.58h-5.03ZM169.95,451.46v-4.29h3.21v4.29h-3.21ZM173.16,451.46v-4.29c.1,0,.19.05.26.15.08.1.14.24.18.43s.07.41.1.68.04.56.04.9-.01.63-.04.9-.06.49-.1.68-.1.33-.18.43c-.08.07-.16.12-.26.12ZM173.16,451.46c-.1,0-.19-.05-.26-.15-.08-.1-.14-.24-.18-.43s-.07-.41-.1-.68-.04-.56-.04-.9c0-.45.02-.83.06-1.15.04-.31.1-.56.19-.73.09-.18.2-.27.34-.27v4.31h0ZM173.16,451.46v-4.29h4.26l-1.03,1.12v-8.59h5.06v11.76h-8.29ZM181.45,451.46v-4.29h1.76c.61,0,1.07-.09,1.38-.26.31-.18.53-.56.66-1.15s.19-1.47.19-2.65v-4.88h5.06v4.88c0,1.92-.26,3.5-.79,4.73s-1.33,2.15-2.4,2.74c-1.07.59-2.44.88-4.1.88h-1.76ZM182.51,433.9v-3.85h4.79v3.85h-4.79ZM185.86,428.99v-3.26h4.29v3.26h-4.29ZM191.69,451.46c-.9,0-1.8-.17-2.69-.51-.89-.34-1.7-.84-2.43-1.49l3.06-3.15c.33.28.67.49,1.01.63.34.15.69.22,1.04.22h5.73l-2.85,2.47v-6.2c0-.29-.03-.75-.1-1.38s-.17-1.35-.29-2.16c-.13-.81-.27-1.65-.43-2.51l4.97-.71c.14.71.27,1.5.41,2.4.14.89.25,1.73.35,2.51s.15,1.4.15,1.85v8.03h-7.93ZM188.75,433.9v-3.85h4.82v3.85h-4.82ZM199.63,451.46v-4.29h3.03v4.29h-3.03ZM202.65,451.46v-4.29c.1,0,.19.05.26.15.08.1.14.24.18.43s.07.41.1.68.04.56.04.9-.01.63-.04.9-.06.49-.1.68c-.04.19-.1.33-.18.43-.07.07-.16.12-.26.12ZM202.65,451.46c-.1,0-.19-.05-.26-.15-.08-.1-.14-.24-.18-.43s-.07-.41-.1-.68-.04-.56-.04-.9c0-.45.02-.83.06-1.15.04-.31.1-.56.19-.73.09-.18.2-.27.34-.27v4.31h0ZM202.65,451.46v-4.29h8.85l-3.15,2.62v-13.12h5.06v14.79h-10.76ZM205.36,433.9v-3.85h4.82v3.85h-4.82ZM211.62,433.9v-3.85h4.79v3.85h-4.79ZM213.42,451.46v-4.29h4v4.29h-4ZM217.42,451.46v-4.29c.1,0,.18.05.25.15.07.1.13.24.18.43s.09.41.12.68.04.56.04.9-.01.63-.04.9-.07.49-.12.68-.11.33-.18.43c-.07.07-.16.12-.25.12ZM217.42,451.46c-.1,0-.19-.05-.26-.15-.08-.1-.14-.24-.18-.43s-.07-.41-.1-.68-.04-.56-.04-.9c0-.45.02-.83.06-1.15.04-.31.1-.56.19-.73.09-.18.2-.27.34-.27v4.31h-.01ZM217.42,451.46v-4.29h4.26l-1.03,1.12v-8.59h5.06v11.76h-8.29ZM225.71,451.46v-4.29h1.76c.61,0,1.07-.09,1.38-.26.31-.18.53-.56.66-1.15s.19-1.47.19-2.65v-4.88h5.06v4.88c0,1.92-.26,3.5-.79,4.73s-1.33,2.15-2.4,2.74c-1.07.59-2.44.88-4.1.88h-1.76ZM235.94,451.46c-.9,0-1.8-.17-2.69-.51s-1.7-.84-2.43-1.49l3.06-3.15c.33.28.67.49,1.01.63.34.15.69.22,1.04.22h5.73l-2.85,2.47v-6.2c0-.29-.03-.75-.1-1.38s-.17-1.35-.29-2.16c-.13-.81-.27-1.65-.43-2.51l4.97-.71c.14.71.27,1.5.41,2.4.14.89.25,1.73.35,2.51s.15,1.4.15,1.85v8.03h-7.93ZM246.97,451.46v-4.29h15.32l-2.29,2.32v-18.61h5.06v20.58h-18.09ZM249.15,461.19v-2.5h8.03v2.5h-8.03ZM251.12,460.81c-.41-.49-.73-.96-.94-1.4-.22-.44-.32-.92-.32-1.43,0-.75.2-1.41.59-2,.39-.59.91-1.05,1.56-1.4.65-.34,1.36-.51,2.15-.51.41,0,.84.06,1.28.18s.81.27,1.1.47l-1.15,2.12c-.2-.1-.39-.16-.57-.19s-.37-.04-.54-.04c-.47,0-.83.12-1.09.37s-.38.56-.38.96c0,.24.04.46.13.66.09.21.23.42.43.63l-2.25,1.58ZM250.65,447.16v-12.2h5.06v12.2h-5.06ZM265.06,451.46v-4.29h3.06v4.29h-3.06ZM268.12,451.46v-4.29c.1,0,.18.05.25.15.07.1.13.24.18.43s.09.41.12.68.04.56.04.9-.01.63-.04.9-.07.49-.12.68-.11.33-.18.43c-.07.07-.16.12-.25.12ZM268.12,451.46c-.1,0-.19-.05-.26-.15-.08-.1-.14-.24-.18-.43s-.07-.41-.1-.68-.04-.56-.04-.9c0-.45.02-.83.06-1.15.04-.31.1-.56.19-.73.09-.18.2-.27.34-.27v4.31h-.01ZM268.12,451.46v-4.29h3.18v4.29h-3.18ZM271.29,451.46v-20.58h5.06v20.58h-5.06ZM285.85,451.46v-4.29h10.47l-3.21,2.74v-3.94c0-1.33-.13-2.36-.38-3.07s-.68-1.21-1.26-1.5c-.59-.28-1.41-.43-2.47-.43h-2.38v-4.29h2.38c1.98,0,3.66.33,5.03.99s2.41,1.67,3.1,3.04c.7,1.37,1.04,3.13,1.04,5.26v5.5h-12.32ZM302.05,451.46v-20.58h5.03v20.58h-5.03ZM310.79,451.46v-4.29h10.47l-3.21,2.74v-3.94c0-1.33-.13-2.36-.38-3.07s-.68-1.21-1.26-1.5c-.59-.28-1.41-.43-2.47-.43h-2.38v-4.29h2.38c1.98,0,3.66.33,5.03.99s2.41,1.67,3.1,3.04c.7,1.37,1.04,3.13,1.04,5.26v5.5h-12.32ZM323.11,451.46v-4.29h3.06v4.29h-3.06ZM326.17,451.46v-4.29c.1,0,.18.05.25.15.07.1.13.24.18.43s.09.41.12.68.04.56.04.9-.01.63-.04.9-.07.49-.12.68-.11.33-.18.43c-.07.07-.16.12-.25.12ZM326.17,451.46c-.1,0-.19-.05-.26-.15-.08-.1-.14-.24-.18-.43s-.07-.41-.1-.68-.04-.56-.04-.9c0-.45.02-.83.06-1.15.04-.31.1-.56.19-.73.09-.18.2-.27.34-.27v4.31h-.01ZM326.14,451.46v-4.29h14.7l-1.85,1.74v-4.79c0-.86-.09-1.52-.26-1.99-.18-.46-.49-.78-.94-.97-.45-.19-1.1-.28-1.94-.28-.78,0-1.55.05-2.29.15-.75.1-1.34.24-1.79.41l3.21-2.91c-.12.43-.23.98-.34,1.65-.11.67-.2,1.37-.26,2.12s-.1,1.46-.1,2.15c0,.59.03,1.24.09,1.94.06.71.13,1.33.22,1.88s.15.92.19,1.12l-4.79,1.32c-.1-.29-.21-.75-.32-1.38-.12-.63-.22-1.36-.29-2.21-.08-.84-.12-1.73-.12-2.68s.04-1.93.13-2.84c.09-.91.2-1.74.34-2.47.14-.74.26-1.32.38-1.75.49-.18,1.25-.35,2.29-.53,1.04-.18,2.2-.26,3.47-.26,1.82,0,3.34.25,4.56.74s2.13,1.28,2.74,2.38.91,2.59.91,4.47v7.29h-17.94ZM347.16,451.46v-4.29h15.32l-2.29,2.32v-18.61h5.06v20.58h-18.09ZM349.34,461.19v-2.5h8.03v2.5h-8.03ZM351.31,460.81c-.41-.49-.73-.96-.94-1.4-.22-.44-.32-.92-.32-1.43,0-.75.2-1.41.59-2,.39-.59.91-1.05,1.56-1.4.65-.34,1.36-.51,2.15-.51.41,0,.84.06,1.28.18s.81.27,1.1.47l-1.15,2.12c-.2-.1-.39-.16-.57-.19s-.37-.04-.54-.04c-.47,0-.83.12-1.09.37s-.38.56-.38.96c0,.24.04.46.13.66.09.21.23.42.43.63l-2.25,1.58ZM350.84,447.16v-12.2h5.06v12.2h-5.06ZM369.78,451.46v-20.58h5.03v20.58h-5.03ZM392.68,451.46c-1.65,0-3.05-.26-4.22-.79-1.17-.53-2.05-1.33-2.66-2.41-.61-1.08-.91-2.43-.91-4.06s.3-3,.91-4.12c.61-1.12,1.49-1.96,2.66-2.54,1.17-.58,2.57-.87,4.22-.87h7.03v12.47h-5.06v-8.88l.82.71h-2.79c-.55,0-1.03.07-1.44.21s-.73.44-.96.9-.34,1.17-.34,2.13c0,.9.1,1.56.29,1.99.2.42.5.69.9.81s.92.18,1.54.18h10.09v4.29h-10.08v-.02ZM387.27,433.9v-3.85h4.82v3.85h-4.82ZM393.54,433.9v-3.85h4.79v3.85h-4.79ZM402.77,451.46v-4.29c.1,0,.18.05.25.15.07.1.13.24.18.43s.09.41.12.68.04.56.04.9-.01.63-.04.9-.07.49-.12.68-.11.33-.18.43c-.07.07-.15.12-.25.12ZM402.77,451.46c-.1,0-.19-.05-.26-.15-.08-.1-.14-.24-.18-.43s-.07-.41-.1-.68-.04-.56-.04-.9c0-.45.02-.83.06-1.15.04-.31.1-.56.19-.73.09-.18.2-.27.34-.27v4.31h-.01ZM402.77,451.46v-4.29h3.18v4.29h-3.18ZM405.95,451.46v-20.58h5.06v20.58h-5.06ZM411,451.46v-4.29h3.06v4.29h-3.06ZM414.06,451.46v-4.29c.1,0,.18.05.25.15.07.1.13.24.18.43s.09.41.12.68.04.56.04.9-.01.63-.04.9-.07.49-.12.68-.11.33-.18.43c-.07.07-.15.12-.25.12ZM414.06,451.46c-.1,0-.19-.05-.26-.15-.08-.1-.14-.24-.18-.43s-.07-.41-.1-.68-.04-.56-.04-.9c0-.45.02-.83.06-1.15.04-.31.1-.56.19-.73.09-.18.2-.27.34-.27v4.31h-.01ZM414.06,451.46v-4.29h4.26l-1.03,1.12v-8.59h5.06v11.76h-8.29ZM422.36,451.46v-4.29h1.76c.61,0,1.07-.09,1.38-.26.31-.18.53-.56.66-1.15s.19-1.47.19-2.65v-4.88h5.06v4.88c0,1.92-.26,3.5-.79,4.73s-1.33,2.15-2.4,2.74c-1.07.59-2.44.88-4.1.88h-1.76ZM432.59,451.46c-.9,0-1.8-.17-2.69-.51s-1.7-.84-2.43-1.49l3.06-3.15c.33.28.67.49,1.01.63.34.15.69.22,1.04.22h5.74l-2.85,2.47v-6.2c0-.29-.04-.75-.1-1.38-.07-.63-.17-1.35-.29-2.16-.13-.81-.27-1.65-.43-2.51l4.97-.71c.14.71.27,1.5.41,2.4.14.89.25,1.73.35,2.51s.15,1.4.15,1.85v8.03h-7.94ZM440.53,451.46v-4.29h3.03v4.29h-3.03ZM443.56,451.46v-4.29c.1,0,.19.05.26.15.08.1.14.24.18.43s.07.41.1.68.04.56.04.9-.01.63-.04.9-.06.49-.1.68-.1.33-.18.43c-.08.07-.16.12-.26.12ZM443.56,451.46c-.1,0-.19-.05-.26-.15-.08-.1-.14-.24-.18-.43s-.07-.41-.1-.68-.04-.56-.04-.9c0-.45.02-.83.06-1.15.04-.31.1-.56.19-.73.09-.18.2-.27.34-.27v4.31h-.01ZM443.56,451.46v-4.29h3.18v4.29h-3.18ZM446.73,451.46v-20.58h5.06v20.58h-5.06ZM451.79,451.46v-4.29h3.06v4.29h-3.06ZM454.85,451.46v-4.29c.1,0,.18.05.25.15.07.1.13.24.18.43s.09.41.12.68.04.56.04.9-.01.63-.04.9-.07.49-.12.68-.11.33-.18.43c-.07.07-.15.12-.25.12ZM454.85,451.46c-.1,0-.19-.05-.26-.15-.08-.1-.14-.24-.18-.43s-.07-.41-.1-.68-.04-.56-.04-.9c0-.45.02-.83.06-1.15.04-.31.1-.56.19-.73.09-.18.2-.27.34-.27v4.31h-.01ZM454.85,451.46v-4.29h4.26l-1.03,1.12v-8.59h5.06v11.76h-8.29ZM463.14,451.46v-4.29h1.76c.61,0,1.07-.09,1.38-.26.31-.18.53-.56.66-1.15s.19-1.47.19-2.65v-4.88h5.06v4.88c0,1.92-.26,3.5-.79,4.73s-1.33,2.15-2.4,2.74c-1.07.59-2.44.88-4.1.88h-1.76ZM473.38,451.46c-.9,0-1.8-.17-2.69-.51s-1.7-.84-2.43-1.49l3.06-3.15c.33.28.67.49,1.01.63.34.15.69.22,1.04.22h5.74l-2.85,2.47v-6.2c0-.29-.04-.75-.1-1.38-.07-.63-.17-1.35-.29-2.16-.13-.81-.27-1.65-.43-2.51l4.97-.71c.14.71.27,1.5.41,2.4.14.89.25,1.73.35,2.51s.15,1.4.15,1.85v8.03h-7.94ZM498.58,451.46c-1.65,0-3.05-.26-4.22-.79-1.17-.53-2.05-1.33-2.66-2.41-.61-1.08-.91-2.43-.91-4.06s.3-3,.91-4.12c.61-1.12,1.49-1.96,2.66-2.54,1.17-.58,2.57-.87,4.22-.87h7.03v12.47h-5.06v-8.88l.82.71h-2.79c-.55,0-1.03.07-1.44.21s-.73.44-.96.9-.34,1.17-.34,2.13c0,.9.1,1.56.29,1.99.2.42.5.69.9.81s.92.18,1.54.18h10.09v4.29h-10.08v-.02ZM493.17,433.9v-3.85h4.82v3.85h-4.82ZM499.43,433.9v-3.85h4.79v3.85h-4.79ZM508.67,451.46v-4.29c.1,0,.18.05.25.15.07.1.13.24.18.43s.09.41.12.68.04.56.04.9-.01.63-.04.9-.07.49-.12.68-.11.33-.18.43c-.07.07-.16.12-.25.12ZM508.67,451.46c-.1,0-.19-.05-.26-.15-.08-.1-.14-.24-.18-.43s-.07-.41-.1-.68-.04-.56-.04-.9c0-.45.02-.83.06-1.15.04-.31.1-.56.19-.73.09-.18.2-.27.34-.27v4.31h-.01ZM508.67,451.46v-4.29h14.79l-1.59,1.26v-3.15c0-1-.09-1.77-.27-2.32s-.45-.94-.81-1.18-.81-.35-1.34-.35h-6.5l-2.94-4.21,1.65-3.09c.14-.25.3-.55.5-.9s.46-.78.79-1.31.76-1.2,1.29-2l4.26,2.32c-.47.69-.85,1.26-1.13,1.72s-.52.86-.71,1.21c-.19.34-.38.68-.57,1.01l-.91,1.79-.59-.85h4.85c1.27,0,2.38.2,3.31.6.93.4,1.71.98,2.32,1.72s1.08,1.61,1.38,2.6.46,2.06.46,3.22v6.18h-18.24v.02ZM530.52,459.31c-.22,0-.48-.01-.79-.03s-.65-.05-1-.09l.09-4.21c.35,0,.68,0,.99.01.3.01.52.01.66.01.67,0,1.19-.27,1.57-.81.38-.54.57-1.32.57-2.34v-15.2h5.06v15.2c0,1.43-.3,2.71-.9,3.84-.6,1.13-1.43,2.01-2.5,2.65-1.07.65-2.32.97-3.75.97ZM537.66,443.9v-4.29h6.09v4.29h-6.09ZM543.75,451.46v-14.79h5.06v14.79h-5.06ZM548.81,451.46v-4.29h1.76c.59,0,1.04-.09,1.37-.26.32-.18.55-.56.68-1.15s.19-1.47.19-2.65v-4.88h5.09v4.88c0,1.92-.27,3.5-.81,4.73-.54,1.24-1.34,2.15-2.41,2.74-1.07.59-2.44.88-4.1.88h-1.77ZM549.87,433.9v-3.85h4.79v3.85h-4.79ZM553.22,428.99v-3.26h4.29v3.26h-4.29ZM559.07,451.46c-.92,0-1.82-.17-2.71-.51s-1.7-.84-2.44-1.49l3.06-3.15c.31.28.65.49,1,.63.35.15.72.22,1.09.22h5.71l-2.85,2.47v-6.2c0-.29-.03-.75-.1-1.38s-.17-1.35-.29-2.16c-.13-.81-.27-1.65-.43-2.51l4.97-.71c.14.71.27,1.5.41,2.4.14.89.25,1.73.34,2.51s.13,1.4.13,1.85v8.03h-7.89ZM556.1,433.9v-3.85h4.82v3.85h-4.82ZM13.3,489.2c-.79,0-1.62-.04-2.48-.13-.87-.09-1.7-.2-2.48-.33-.79-.13-1.45-.25-1.99-.36l.24-3.68c.57.05,1.24.12,2,.21s1.53.17,2.29.23c.77.06,1.44.09,2.01.09s1-.06,1.33-.19c.33-.12.57-.31.72-.55s.23-.56.23-.95c0-.32-.07-.58-.21-.76-.14-.19-.42-.35-.82-.48-.4-.13-.98-.26-1.73-.39-1.16-.2-2.14-.43-2.94-.71s-1.44-.63-1.92-1.05c-.48-.42-.83-.95-1.05-1.6-.21-.64-.32-1.42-.32-2.33,0-1.54.27-2.73.82-3.57.54-.84,1.32-1.43,2.32-1.77s2.19-.51,3.57-.51c.64,0,1.37.04,2.19.11s1.61.15,2.39.24c.78.09,1.45.19,2.03.29l-.19,3.76c-.54-.05-1.17-.11-1.89-.17s-1.45-.12-2.19-.17-1.38-.08-1.93-.08c-.52,0-.95.05-1.3.15s-.6.25-.75.44c-.15.2-.23.46-.23.78,0,.36.08.64.24.85.16.21.44.38.85.51s.98.29,1.73.47c1.16.25,2.14.51,2.92.78.79.27,1.42.6,1.89.99s.82.9,1.03,1.52.32,1.41.32,2.38c0,1.47-.26,2.64-.78,3.53s-1.28,1.52-2.28,1.91-2.21.54-3.64.54ZM26.24,489.2c-1.16,0-2.08-.25-2.75-.76s-1.14-1.27-1.41-2.28-.4-2.27-.4-3.77v-7h4.59v6.74c0,.79.04,1.4.13,1.85.09.45.25.76.48.95s.56.28.99.28c.39,0,.77-.05,1.14-.15.37-.1.67-.2.9-.31v-9.37h4.59v13.5h-4.56v-.75c-.63.34-1.22.6-1.77.79-.55.18-1.2.28-1.93.28ZM36.86,494.35v-18.97h4.54l.05.78c.23-.16.52-.33.86-.5s.72-.31,1.14-.43.83-.17,1.22-.17c1.23,0,2.23.27,2.99.8.76.54,1.31,1.33,1.65,2.38s.51,2.35.51,3.91-.19,2.96-.58,4c-.38,1.04-1.01,1.81-1.86,2.31-.86.5-2,.75-3.44.75-.39,0-.83-.04-1.31-.12-.48-.08-.88-.15-1.18-.2v5.47h-4.59ZM43.04,485.41c.55,0,.98-.13,1.29-.4.3-.27.52-.66.64-1.17s.19-1.12.19-1.84c0-1.22-.16-2.05-.47-2.5-.31-.45-.77-.67-1.38-.67-.18,0-.39.03-.62.08s-.46.12-.67.19c-.21.07-.4.14-.56.21v5.96c.16.02.39.04.68.08.29.04.59.06.9.06ZM51.76,494.35v-18.97h4.54l.05.78c.23-.16.52-.33.86-.5s.72-.31,1.14-.43.83-.17,1.22-.17c1.23,0,2.23.27,2.99.8.76.54,1.31,1.33,1.65,2.38s.51,2.35.51,3.91-.19,2.96-.58,4c-.38,1.04-1.01,1.81-1.87,2.31s-2,.75-3.43.75c-.39,0-.83-.04-1.32-.12-.48-.08-.88-.15-1.18-.2v5.47h-4.58ZM57.93,485.41c.55,0,.98-.13,1.29-.4.3-.27.52-.66.64-1.17s.19-1.12.19-1.84c0-1.22-.16-2.05-.47-2.5-.31-.45-.77-.67-1.38-.67-.18,0-.38.03-.62.08s-.46.12-.67.19c-.21.07-.4.14-.56.21v5.96c.16.02.39.04.68.08.3.04.6.06.9.06ZM66.71,488.87v-18.79h4.62v18.79h-4.62ZM77.33,494.35l1.72-5.47h-3.46l-2.79-13.5h4.86l1.77,9.63h.56l1.74-9.63h4.62l-4,18.97h-5.02ZM100.65,489.2c-1.45,0-2.65-.17-3.6-.51s-1.7-.88-2.25-1.62-.95-1.71-1.18-2.91c-.23-1.2-.35-2.66-.35-4.38s.12-3.17.35-4.36.63-2.16,1.18-2.9,1.32-1.29,2.29-1.64c.97-.35,2.21-.52,3.72-.52.55,0,1.16.04,1.81.11s1.29.16,1.92.27c.63.11,1.17.21,1.64.32l-.13,3.73c-.32-.05-.74-.11-1.25-.16s-1.04-.1-1.58-.13-1.05-.05-1.52-.05c-.73,0-1.34.08-1.81.25-.47.17-.84.46-1.1.86-.26.4-.43.94-.52,1.62s-.13,1.55-.13,2.6.04,1.9.13,2.59.26,1.23.52,1.64c.26.4.63.69,1.1.86s1.08.25,1.81.25,1.52-.03,2.35-.08,1.52-.12,2.05-.19l.08,3.7c-.41.09-.92.19-1.53.3s-1.26.19-1.96.25c-.69.06-1.37.1-2.04.1ZM108.01,488.87v-18.79h4.59v5.61c.29-.09.63-.18,1.02-.28s.8-.18,1.21-.25c.41-.07.78-.11,1.1-.11.95,0,1.75.12,2.39.36s1.16.63,1.54,1.15c.38.53.66,1.23.82,2.09.16.87.24,1.93.24,3.18v7.03h-4.62v-6.63c0-.77-.04-1.39-.13-1.85-.09-.46-.25-.8-.48-1.02s-.58-.32-1.05-.32c-.23,0-.47.02-.72.07-.25.04-.49.09-.72.15-.23.05-.43.11-.59.16v9.45h-4.6ZM127.06,489.2c-1.52,0-2.66-.36-3.41-1.07s-1.13-1.83-1.13-3.33c0-1.07.2-1.9.6-2.47s.99-.97,1.76-1.21c.77-.23,1.69-.38,2.76-.43l2.71-.19v-.59c0-.45-.14-.76-.42-.94s-.67-.27-1.17-.27c-.54,0-1.15.02-1.83.05-.68.04-1.34.08-1.99.13-.64.05-1.21.11-1.69.16l-.13-3.19c.5-.12,1.1-.25,1.78-.38.69-.12,1.41-.23,2.16-.31s1.46-.12,2.12-.12c1.2,0,2.23.13,3.1.4s1.53.73,1.99,1.4.68,1.59.68,2.79v5.69c.05.16.17.29.36.4.19.11.39.18.6.21l-.08,3.03c-.29.02-.59.04-.91.08s-.62.05-.9.05-.51-.01-.68-.03c-.54-.02-.98-.12-1.34-.31s-.62-.37-.78-.55c-.27.13-.63.26-1.07.42-.45.15-.94.28-1.48.39-.51.13-1.05.19-1.61.19ZM128.24,485.92c.27,0,.53-.03.79-.09s.51-.14.75-.23c.24-.09.43-.17.58-.24v-2.2l-1.96.19c-.43.04-.75.17-.95.39-.21.22-.31.53-.31.93s.09.7.27.93.46.32.83.32ZM137.53,473.76v-3.52h4.64v3.52h-4.64ZM137.55,488.87v-13.5h4.59v13.5h-4.59ZM144.5,488.87v-13.5h4.59v.78c.27-.16.59-.33.97-.5s.77-.31,1.19-.43c.42-.12.82-.17,1.19-.17.95,0,1.74.12,2.38.36.63.24,1.14.63,1.53,1.18s.66,1.26.83,2.15.25,1.96.25,3.23v6.9h-4.64v-6.63c0-.77-.04-1.39-.13-1.85-.09-.46-.25-.8-.48-1.02s-.56-.32-.99-.32c-.25,0-.5.02-.76.07s-.51.1-.74.17-.43.14-.59.21v9.37h-4.6ZM165.6,488.87v-18.17h7.35l2.74,9.96,2.55-9.96h7.54v18.17h-4.78v-11.75h-.35l-2.87,11.41h-4.21l-2.84-11.41h-.35v11.75h-4.78ZM192.19,489.2c-1.52,0-2.66-.36-3.41-1.07s-1.13-1.83-1.13-3.33c0-1.07.2-1.9.6-2.47s.99-.97,1.76-1.21c.77-.23,1.69-.38,2.76-.43l2.71-.19v-.59c0-.45-.14-.76-.42-.94s-.67-.27-1.17-.27c-.54,0-1.15.02-1.83.05-.68.04-1.34.08-1.99.13-.64.05-1.21.11-1.69.16l-.13-3.19c.5-.12,1.1-.25,1.78-.38.69-.12,1.41-.23,2.16-.31s1.46-.12,2.12-.12c1.2,0,2.23.13,3.1.4s1.53.73,1.99,1.4.68,1.59.68,2.79v5.69c.05.16.17.29.36.4.19.11.39.18.6.21l-.08,3.03c-.29.02-.59.04-.91.08s-.62.05-.9.05-.51-.01-.68-.03c-.54-.02-.98-.12-1.34-.31s-.62-.37-.78-.55c-.27.13-.63.26-1.07.42-.45.15-.94.28-1.48.39-.51.13-1.05.19-1.61.19ZM193.37,485.92c.27,0,.53-.03.79-.09s.51-.14.75-.23c.24-.09.43-.17.58-.24v-2.2l-1.96.19c-.43.04-.75.17-.95.39-.21.22-.31.53-.31.93s.09.7.27.93.46.32.83.32ZM202.68,488.87v-13.5h4.59v.78c.27-.16.59-.33.97-.5s.77-.31,1.19-.43.82-.17,1.19-.17c.95,0,1.74.12,2.38.36s1.15.63,1.53,1.18.66,1.26.83,2.15c.17.89.25,1.96.25,3.23v6.9h-4.64v-6.63c0-.77-.04-1.39-.13-1.85-.09-.46-.25-.8-.48-1.02-.23-.21-.56-.32-.99-.32-.25,0-.51.02-.76.07-.26.04-.51.1-.74.17s-.43.14-.59.21v9.37h-4.6ZM221.74,489.2c-1.52,0-2.66-.36-3.41-1.07-.75-.72-1.13-1.83-1.13-3.33,0-1.07.2-1.9.6-2.47.4-.57.99-.97,1.76-1.21.77-.23,1.69-.38,2.76-.43l2.71-.19v-.59c0-.45-.14-.76-.42-.94s-.67-.27-1.17-.27c-.54,0-1.14.02-1.82.05-.68.04-1.34.08-1.99.13s-1.21.11-1.69.16l-.13-3.19c.5-.12,1.1-.25,1.79-.38.69-.12,1.41-.23,2.16-.31s1.46-.12,2.12-.12c1.2,0,2.23.13,3.1.4s1.53.73,1.99,1.4.68,1.59.68,2.79v5.69c.05.16.17.29.36.4s.39.18.6.21l-.08,3.03c-.29.02-.59.04-.91.08-.32.04-.62.05-.9.05s-.51-.01-.68-.03c-.54-.02-.98-.12-1.34-.31s-.62-.37-.78-.55c-.27.13-.63.26-1.07.42-.45.15-.94.28-1.48.39-.53.13-1.08.19-1.63.19ZM222.92,485.92c.27,0,.53-.03.79-.09s.51-.14.75-.23c.24-.09.43-.17.58-.24v-2.2l-1.96.19c-.43.04-.75.17-.95.39-.21.22-.31.53-.31.93s.09.7.27.93c.18.21.45.32.83.32ZM238.51,494.91c-1.45,0-2.69-.1-3.73-.29-1.04-.2-1.83-.57-2.38-1.11s-.82-1.35-.82-2.43c0-.45.06-.85.19-1.21.12-.36.32-.7.59-1.03s.63-.67,1.07-1.01c-.25-.2-.46-.47-.63-.82-.17-.35-.25-.73-.25-1.14,0-.16.07-.36.21-.59.14-.23.32-.48.54-.74.21-.26.41-.49.59-.68-.36-.18-.7-.42-1.02-.74-.32-.31-.59-.74-.8-1.28-.21-.54-.32-1.22-.32-2.04,0-1.18.22-2.12.66-2.8.44-.69,1.11-1.18,2.01-1.49.9-.3,2.04-.46,3.4-.46.45,0,.94.03,1.48.09s.97.14,1.32.23l4.62-.11v2.9l-1.72-.03c.12.2.24.43.34.71s.15.59.15.95c0,1.27-.22,2.25-.66,2.94s-1.1,1.16-1.99,1.41-2.03.38-3.42.38c-.13,0-.3-.01-.54-.03s-.42-.04-.56-.05c-.05.11-.11.24-.16.4s-.08.28-.08.35c0,.13.04.23.13.31.09.08.25.14.5.19.24.04.59.07,1.03.08.45.01,1.03.01,1.75.01,1.27,0,2.28.12,3.02.38.74.25,1.27.68,1.6,1.29s.48,1.45.48,2.52c0,1.65-.59,2.88-1.76,3.7-1.19.83-2.8,1.24-4.84,1.24ZM238.19,491.64c.97,0,1.65-.09,2.04-.27.39-.18.59-.47.59-.89,0-.3-.07-.53-.21-.68-.14-.15-.38-.25-.71-.29s-.79-.07-1.38-.07c-.18,0-.39,0-.63-.01s-.47-.02-.7-.03c-.22-.01-.43-.02-.6-.03-.18-.01-.31-.02-.4-.04-.18.12-.32.25-.42.36s-.17.24-.21.36-.07.29-.07.48c0,.27.09.48.28.64.19.16.48.28.87.35.38.08.9.12,1.55.12ZM237.84,481.41c.63,0,1.07-.12,1.34-.36s.4-.67.4-1.28-.13-1.04-.4-1.29-.72-.38-1.34-.38-1.05.12-1.31.38c-.27.25-.4.68-.4,1.29s.13,1.03.4,1.28c.26.24.7.36,1.31.36ZM252.41,489.2c-1.57,0-2.83-.25-3.76-.74s-1.6-1.25-2-2.27-.6-2.31-.6-3.86c0-1.63.24-2.98.71-4.05s1.19-1.88,2.16-2.42,2.19-.8,3.68-.8c2.13,0,3.73.5,4.82,1.5,1.08,1,1.62,2.58,1.62,4.75l-.21,2.25h-8.13c.02.72.18,1.25.48,1.6s.83.52,1.58.52c.57,0,1.21-.01,1.92-.04.71-.03,1.41-.06,2.12-.09.71-.04,1.3-.07,1.78-.11l.11,3.09c-.46.09-1.06.19-1.77.29-.72.11-1.47.2-2.27.27-.79.07-1.54.11-2.24.11ZM250.67,480.85h3.76c0-.91-.14-1.55-.43-1.92s-.75-.55-1.4-.55c-.45,0-.81.08-1.1.24s-.49.42-.62.79c-.12.37-.2.85-.21,1.44ZM260.86,488.87v-13.5h4.59v.78c.25-.16.58-.33.98-.5s.82-.31,1.26-.43.85-.17,1.25-.17c.79,0,1.43.11,1.93.33.5.22.91.53,1.24.93.3-.18.69-.37,1.15-.56.46-.2.97-.36,1.5-.5.54-.13,1.08-.2,1.64-.2,1.02,0,1.86.13,2.52.4s1.19.69,1.57,1.26c.38.57.65,1.29.79,2.15.14.86.21,1.88.21,3.06v6.95h-4.59v-6.44c0-.77-.04-1.4-.12-1.91-.08-.5-.24-.87-.47-1.11s-.56-.36-.99-.36c-.23,0-.48.02-.75.07-.27.04-.51.1-.74.17s-.41.14-.55.21c.09.29.15.7.19,1.24s.05,1.08.05,1.64v6.49h-4.62v-6.41c0-.79-.04-1.43-.12-1.93s-.23-.87-.46-1.11c-.22-.24-.55-.36-.98-.36-.23,0-.47.02-.72.07-.25.04-.47.1-.67.17s-.37.13-.51.19v9.39h-4.58ZM289.63,489.2c-1.57,0-2.83-.25-3.76-.74s-1.6-1.25-2-2.27-.6-2.31-.6-3.86c0-1.63.24-2.98.71-4.05s1.19-1.88,2.16-2.42,2.19-.8,3.68-.8c2.13,0,3.73.5,4.82,1.5,1.08,1,1.62,2.58,1.62,4.75l-.21,2.25h-8.13c.02.72.18,1.25.48,1.6s.83.52,1.58.52c.57,0,1.21-.01,1.92-.04.71-.03,1.41-.06,2.12-.09.71-.04,1.3-.07,1.78-.11l.11,3.09c-.46.09-1.06.19-1.77.29-.72.11-1.47.2-2.27.27-.79.07-1.54.11-2.24.11ZM287.89,480.85h3.76c0-.91-.14-1.55-.43-1.92s-.75-.55-1.4-.55c-.45,0-.81.08-1.1.24s-.49.42-.62.79c-.12.37-.19.85-.21,1.44ZM298.09,488.87v-13.5h4.59v.78c.27-.16.59-.33.97-.5s.77-.31,1.19-.43.82-.17,1.19-.17c.95,0,1.74.12,2.38.36.63.24,1.14.63,1.53,1.18s.66,1.26.83,2.15.25,1.96.25,3.23v6.9h-4.64v-6.63c0-.77-.04-1.39-.13-1.85-.09-.46-.25-.8-.48-1.02s-.56-.32-.99-.32c-.25,0-.5.02-.76.07s-.51.1-.74.17-.43.14-.59.21v9.37h-4.6ZM318.11,489.2c-1.02,0-1.85-.14-2.48-.42s-1.1-.77-1.4-1.48c-.29-.71-.44-1.69-.44-2.96v-5.21h-1.34v-3.76h1.34v-3.19h4.62v3.19h2.9v3.76h-2.9v4.08c0,.52.03.93.08,1.22s.17.5.35.62.45.17.81.17c.09,0,.24,0,.46-.01s.44-.02.67-.03.4-.01.51-.01l.08,3.62c-.29.05-.63.11-1.03.17-.4.06-.8.12-1.19.16s-.76.08-1.04.08ZM335.84,489.2c-1.45,0-2.65-.17-3.6-.51-.95-.34-1.7-.88-2.25-1.62s-.95-1.71-1.18-2.91c-.23-1.2-.35-2.66-.35-4.38s.12-3.17.35-4.36.63-2.16,1.18-2.9,1.32-1.29,2.29-1.64c.97-.35,2.21-.52,3.72-.52.55,0,1.16.04,1.81.11.65.07,1.29.16,1.92.27.63.11,1.17.21,1.64.32l-.13,3.73c-.32-.05-.74-.11-1.25-.16s-1.04-.1-1.58-.13-1.05-.05-1.52-.05c-.73,0-1.34.08-1.81.25s-.84.46-1.1.86-.43.94-.52,1.62-.13,1.55-.13,2.6.04,1.9.13,2.59c.09.69.26,1.23.52,1.64.26.4.63.69,1.1.86.47.17,1.08.25,1.81.25s1.52-.03,2.35-.08,1.52-.12,2.05-.19l.08,3.7c-.41.09-.92.19-1.53.3s-1.26.19-1.96.25c-.69.06-1.37.1-2.04.1ZM349.18,489.2c-1.54,0-2.8-.24-3.78-.72s-1.71-1.25-2.19-2.31c-.47-1.06-.71-2.42-.71-4.11s.24-3.01.72-4.03,1.22-1.77,2.21-2.25,2.24-.72,3.74-.72,2.75.24,3.73.72,1.72,1.23,2.2,2.25.72,2.36.72,4.03-.23,3.05-.7,4.11-1.19,1.82-2.17,2.31c-.97.47-2.23.72-3.77.72ZM349.18,485.41c.55,0,.97-.11,1.25-.32s.47-.57.58-1.07.16-1.15.16-1.96-.06-1.47-.19-1.93c-.12-.47-.33-.8-.6-1.01-.28-.21-.68-.31-1.19-.31s-.92.1-1.21.31-.49.55-.62,1.02c-.12.47-.19,1.11-.19,1.92s.05,1.46.16,1.96.3.86.59,1.07.71.32,1.26.32ZM357.77,488.87v-13.5h4.59v.78c.27-.16.59-.33.97-.5s.77-.31,1.19-.43.82-.17,1.19-.17c.95,0,1.74.12,2.38.36s1.15.63,1.53,1.18.66,1.26.83,2.15c.17.89.25,1.96.25,3.23v6.9h-4.64v-6.63c0-.77-.04-1.39-.13-1.85-.09-.46-.25-.8-.48-1.02-.23-.21-.56-.32-.99-.32-.25,0-.51.02-.76.07-.26.04-.51.1-.74.17s-.43.14-.59.21v9.37h-4.6ZM378.22,489.2c-.73,0-1.46-.04-2.19-.11-.72-.07-1.39-.16-1.99-.25-.6-.1-1.09-.19-1.46-.28l.13-3.25c.46.05,1,.12,1.6.19s1.19.13,1.77.17,1.06.07,1.44.07c.41,0,.75-.03,1.01-.08s.45-.15.58-.29c.12-.14.19-.33.19-.56,0-.2-.07-.35-.2-.46-.13-.11-.38-.21-.74-.29-.36-.09-.89-.18-1.58-.27-1-.14-1.82-.36-2.46-.66-.63-.3-1.1-.72-1.4-1.28-.29-.55-.44-1.29-.44-2.2,0-1.2.25-2.13.75-2.79s1.18-1.13,2.03-1.4,1.79-.4,2.83-.4c.72,0,1.43.03,2.13.09.71.06,1.36.14,1.96.24.6.1,1.09.19,1.46.28l-.13,3.35c-.47-.05-1-.11-1.61-.17s-1.2-.11-1.77-.15c-.57-.04-1.06-.05-1.45-.05-.32,0-.6.03-.85.08s-.42.14-.55.25c-.13.12-.19.28-.19.5,0,.16.06.29.17.4s.34.2.68.28c.34.08.84.17,1.5.28,1.09.13,1.97.34,2.63.64s1.14.74,1.42,1.3c.29.56.43,1.32.43,2.27,0,1.11-.22,2-.66,2.66s-1.08,1.14-1.93,1.44c-.83.3-1.88.45-3.11.45ZM390.24,489.2c-1.16,0-2.08-.25-2.75-.76s-1.14-1.27-1.41-2.28-.4-2.27-.4-3.77v-7h4.59v6.74c0,.79.04,1.4.13,1.85.09.45.25.76.48.95s.56.28.99.28c.39,0,.77-.05,1.14-.15.37-.1.67-.2.9-.31v-9.37h4.59v13.5h-4.56v-.75c-.63.34-1.22.6-1.77.79-.55.18-1.2.28-1.93.28ZM400.92,488.87v-18.79h4.62v18.79h-4.62ZM412.84,489.2c-1.02,0-1.85-.14-2.48-.42-.64-.28-1.1-.77-1.4-1.48-.29-.71-.44-1.69-.44-2.96v-5.21h-1.34v-3.76h1.34v-3.19h4.62v3.19h2.9v3.76h-2.9v4.08c0,.52.03.93.08,1.22s.17.5.35.62c.18.12.45.17.8.17.09,0,.24,0,.46-.01s.44-.02.67-.03.4-.01.51-.01l.08,3.62c-.29.05-.63.11-1.03.17s-.8.12-1.19.16-.75.08-1.03.08ZM417.67,473.76v-3.52h4.64v3.52h-4.64ZM417.69,488.87v-13.5h4.59v13.5h-4.59ZM424.64,488.87v-13.5h4.59v.78c.27-.16.59-.33.97-.5s.77-.31,1.19-.43.82-.17,1.19-.17c.95,0,1.74.12,2.38.36.63.24,1.14.63,1.53,1.18s.66,1.26.83,2.15.25,1.96.25,3.23v6.9h-4.64v-6.63c0-.77-.04-1.39-.13-1.85-.09-.46-.25-.8-.48-1.02s-.56-.32-.99-.32c-.25,0-.5.02-.76.07s-.51.1-.74.17-.43.14-.59.21v9.37h-4.6ZM446.19,494.91c-1.45,0-2.69-.1-3.73-.29-1.04-.2-1.83-.57-2.38-1.11s-.82-1.35-.82-2.43c0-.45.06-.85.19-1.21.12-.36.32-.7.59-1.03s.63-.67,1.07-1.01c-.25-.2-.46-.47-.63-.82-.17-.35-.25-.73-.25-1.14,0-.16.07-.36.21-.59.14-.23.32-.48.54-.74.21-.26.41-.49.59-.68-.36-.18-.7-.42-1.02-.74-.32-.31-.59-.74-.8-1.28-.21-.54-.32-1.22-.32-2.04,0-1.18.22-2.12.66-2.8.44-.69,1.11-1.18,2.01-1.49.9-.3,2.04-.46,3.4-.46.45,0,.94.03,1.48.09s.97.14,1.32.23l4.62-.11v2.9l-1.72-.03c.12.2.24.43.34.71s.15.59.15.95c0,1.27-.22,2.25-.66,2.94s-1.1,1.16-1.99,1.41-2.03.38-3.42.38c-.13,0-.3-.01-.54-.03s-.42-.04-.56-.05c-.05.11-.11.24-.16.4s-.08.28-.08.35c0,.13.04.23.13.31.09.08.25.14.5.19.24.04.59.07,1.03.08.45.01,1.03.01,1.75.01,1.27,0,2.28.12,3.02.38.74.25,1.27.68,1.6,1.29s.48,1.45.48,2.52c0,1.65-.59,2.88-1.76,3.7-1.19.83-2.8,1.24-4.84,1.24ZM445.87,491.64c.97,0,1.65-.09,2.04-.27.39-.18.59-.47.59-.89,0-.3-.07-.53-.21-.68-.14-.15-.38-.25-.71-.29s-.79-.07-1.38-.07c-.18,0-.39,0-.63-.01s-.47-.02-.7-.03c-.22-.01-.43-.02-.6-.03-.18-.01-.31-.02-.4-.04-.18.12-.32.25-.42.36s-.17.24-.21.36-.07.29-.07.48c0,.27.09.48.28.64.19.16.48.28.87.35.39.08.91.12,1.55.12ZM445.52,481.41c.63,0,1.07-.12,1.34-.36s.4-.67.4-1.28-.13-1.04-.4-1.29-.72-.38-1.34-.38-1.05.12-1.31.38c-.27.25-.4.68-.4,1.29s.13,1.03.4,1.28c.27.24.7.36,1.31.36ZM467.29,489.2c-1.45,0-2.65-.17-3.6-.51-.95-.34-1.7-.88-2.25-1.62s-.95-1.71-1.18-2.91c-.23-1.2-.35-2.66-.35-4.38s.12-3.17.35-4.36.63-2.16,1.18-2.9,1.32-1.29,2.29-1.64c.97-.35,2.21-.52,3.72-.52.55,0,1.16.04,1.81.11s1.29.16,1.92.27c.63.11,1.17.21,1.64.32l-.13,3.73c-.32-.05-.74-.11-1.25-.16s-1.04-.1-1.58-.13-1.05-.05-1.52-.05c-.73,0-1.34.08-1.81.25s-.84.46-1.1.86c-.26.4-.43.94-.52,1.62s-.13,1.55-.13,2.6.04,1.9.13,2.59c.09.69.26,1.23.52,1.64.26.4.63.69,1.1.86.47.17,1.08.25,1.81.25s1.52-.03,2.35-.08,1.52-.12,2.05-.19l.08,3.7c-.41.09-.92.19-1.53.3s-1.26.19-1.96.25c-.7.06-1.38.1-2.04.1ZM480.62,489.2c-1.54,0-2.8-.24-3.78-.72s-1.71-1.25-2.19-2.31c-.47-1.06-.71-2.42-.71-4.11s.24-3.01.72-4.03,1.22-1.77,2.21-2.25,2.24-.72,3.74-.72,2.75.24,3.73.72,1.72,1.23,2.2,2.25.72,2.36.72,4.03-.23,3.05-.7,4.11-1.19,1.82-2.17,2.31c-.97.47-2.23.72-3.77.72ZM480.62,485.41c.55,0,.97-.11,1.25-.32s.47-.57.58-1.07.16-1.15.16-1.96-.06-1.47-.19-1.93c-.12-.47-.33-.8-.6-1.01-.28-.21-.68-.31-1.19-.31s-.92.1-1.21.31-.49.55-.62,1.02c-.13.47-.19,1.11-.19,1.92s.05,1.46.16,1.96.3.86.59,1.07.71.32,1.26.32ZM489.21,488.87v-13.5h4.59v.78c.25-.16.58-.33.98-.5s.82-.31,1.26-.43.85-.17,1.25-.17c.79,0,1.43.11,1.93.33.5.22.91.53,1.23.93.3-.18.69-.37,1.15-.56.46-.2.97-.36,1.5-.5.54-.13,1.08-.2,1.64-.2,1.02,0,1.86.13,2.52.4s1.18.69,1.57,1.26c.38.57.65,1.29.79,2.15s.21,1.88.21,3.06v6.95h-4.59v-6.44c0-.77-.04-1.4-.12-1.91-.08-.5-.24-.87-.47-1.11s-.56-.36-.99-.36c-.23,0-.48.02-.75.07s-.51.1-.74.17-.41.14-.55.21c.09.29.15.7.19,1.24s.05,1.08.05,1.64v6.49h-4.62v-6.41c0-.79-.04-1.43-.12-1.93s-.23-.87-.46-1.11c-.22-.24-.55-.36-.98-.36-.23,0-.47.02-.72.07-.25.04-.47.1-.67.17s-.37.13-.51.19v9.39h-4.57ZM512.08,494.35v-18.97h4.54l.05.78c.23-.16.52-.33.86-.5s.72-.31,1.14-.43.83-.17,1.22-.17c1.23,0,2.23.27,2.99.8.76.54,1.31,1.33,1.65,2.38.34,1.05.51,2.35.51,3.91s-.19,2.96-.58,4c-.38,1.04-1.01,1.81-1.87,2.31s-2,.75-3.43.75c-.39,0-.83-.04-1.32-.12-.48-.08-.88-.15-1.18-.2v5.47h-4.58ZM518.25,485.41c.55,0,.98-.13,1.29-.4.3-.27.52-.66.64-1.17.12-.51.19-1.12.19-1.84,0-1.22-.16-2.05-.47-2.5s-.77-.67-1.38-.67c-.18,0-.38.03-.62.08s-.46.12-.67.19-.4.14-.56.21v5.96c.16.02.39.04.68.08.29.04.59.06.9.06ZM530.89,489.2c-1.52,0-2.66-.36-3.41-1.07s-1.13-1.83-1.13-3.33c0-1.07.2-1.9.6-2.47s.99-.97,1.76-1.21c.77-.23,1.69-.38,2.76-.43l2.71-.19v-.59c0-.45-.14-.76-.42-.94s-.67-.27-1.17-.27c-.54,0-1.15.02-1.83.05-.68.04-1.34.08-1.99.13-.64.05-1.21.11-1.69.16l-.13-3.19c.5-.12,1.1-.25,1.78-.38.69-.12,1.41-.23,2.16-.31s1.46-.12,2.12-.12c1.2,0,2.23.13,3.1.4s1.53.73,1.99,1.4.68,1.59.68,2.79v5.69c.05.16.17.29.36.4.19.11.39.18.6.21l-.08,3.03c-.29.02-.59.04-.91.08s-.62.05-.9.05-.51-.01-.68-.03c-.54-.02-.98-.12-1.34-.31s-.62-.37-.78-.55c-.27.13-.63.26-1.07.42-.45.15-.94.28-1.48.39-.51.13-1.06.19-1.61.19ZM532.07,485.92c.27,0,.53-.03.79-.09s.51-.14.75-.23c.24-.09.43-.17.58-.24v-2.2l-1.96.19c-.43.04-.75.17-.95.39-.21.22-.31.53-.31.93s.09.7.27.93.45.32.83.32ZM541.38,488.87v-13.5h4.59v.78c.27-.16.59-.33.97-.5s.77-.31,1.19-.43.82-.17,1.19-.17c.95,0,1.74.12,2.38.36.63.24,1.14.63,1.53,1.18s.66,1.26.83,2.15.25,1.96.25,3.23v6.9h-4.64v-6.63c0-.77-.04-1.39-.13-1.85-.09-.46-.25-.8-.48-1.02s-.56-.32-.99-.32c-.25,0-.5.02-.76.07s-.51.1-.74.17-.43.14-.59.21v9.37h-4.6ZM559.93,494.35l1.72-5.47h-3.46l-2.79-13.5h4.86l1.77,9.63h.56l1.74-9.63h4.62l-4,18.97h-5.02ZM76.66,257.69v24.88l22.89,23.01v-60.83l-22.89,12.94ZM76.66,166.66v67.23l22.89-12.94v-54.28c0-15.33,22.98-15.33,22.98,0v41.29l22.89-12.94v-28.34c0-46.25-68.76-46.25-68.76-.02ZM122.53,231.75v96.95h-45.87v23.11h68.76v-133l-22.89,12.94ZM168.29,109.86v72.2l22.89-12.94v-66.58l-22.89,7.32ZM168.29,205.87v147.08h22.89v-160.02l-22.89,12.94ZM214.05,124.39v31.8l22.89-12.94v-18.85c0-15.33,22.98-15.33,22.98,0v204.85h-45.87v23.11h68.76V124.39c0-46.23-68.76-46.23-68.76,0ZM214.05,179.99v60.31l22.89,23.01v-96.26l-22.89,12.94ZM351.55,322.91c0,15.44-22.98,15.44-22.98,0v-68.7l-22.89,13.25v55.46c0,46.23,68.76,46.23,68.76,0v-95.27l-22.89,13.25v82.01h0ZM305.68,92.65v150.86l22.89-13.25V92.65c0-15.44,22.98-15.44,22.98,0v124.31l22.89-13.26v-111.05c0-46.23-68.76-46.23-68.76,0ZM271.9,329.17v23.11h33.79v-23.11h-33.79ZM443.19,387.11v-2.49c0-7.33-5.77-11.01-11.44-11.01s-11.44,3.67-11.44,11.01v22.16h22.87v-7.35h-15.29v-14.81c0-2.38,1.93-3.56,3.85-3.56s3.85,1.19,3.85,3.56v7.35l7.6-4.86ZM443.08,21.99v121.01h-22.87V29.3l-22.89,7.32v129.49h22.89v23.12h-22.89v138.8c0,46.34,68.76,46.34,68.76,0v-138.8h-23v-23.12h23V14.63l-23,7.36ZM443.19,212.34v115.69c0,15.44-22.87,15.44-22.87,0v-115.69h22.87ZM488.95,342.78h22.89v-194.64l-22.89,13.25v181.39ZM488.95,7.32v130.11l22.89-13.25V0l-22.89,7.32ZM324.19,329.17h-50.08v23.19h50.08v-23.19ZM10.19,294.41l66.47-36.73v-23.8L0,276.37l10.19,18.04ZM632.27,61.87l-63.24,3.82,10.94,16.15-68.14,42.35v23.95l79.73-49.19,13.71,20.24,27-57.32Z"/>
</svg>